{"title":"The.Avengers.2012TS.XviD.full line audio.Mripper","uid":7287634,"size":2390871877,"categoryP":"video","categoryS":"movies","magnet":"?xt=urn:btih:c782e2289bf7e6d13b76726d80d176126e4c919b&amp;dn=The.Avengers.2012TS.XviD.full+line+audio.Mripper&amp;tr=udp%3A%2F%2Ftracker.openbittorrent.com%3A80&amp;tr=udp%3A%2F%2Fopen.demonii.com%3A1337&amp;tr=udp%3A%2F%2Ftracker.coppersurfer.tk%3A6969&amp;tr=udp%3A%2F%2Fexodus.desync.com%3A6969","seeders":1,"leechers":0,"uploader":"Mripper","files":1,"time":1337631985,"description":"Video: Xvid 720x320 23.976fps\nAudio: Dolby AC3 48000Hz stereo\n\nComplete name :The.Avengers.2012TS.XviD.full\nline audio.Mripper\nFormat : Matroska\nFormat version : Version 2\nFile size : 2.23 GiB\nDuration : 2h 13mn\nOverall bit rate : 2 387 Kbps\nEncoded date : UTC 2012-05-21 09:33:38\nWriting application : mkvmerge v5.5.0 ('Healer') built on Apr 6 2012 21:43:24\nWriting library : libebml v1.2.3 + libmatroska v1.3.0\n\nVideo\nID : 1\nFormat : MPEG-4 Visual\nFormat profile : Advanced Simple@L5\nFormat settings, BVOP : Yes\nFormat settings, QPel : No\nFormat settings, GMC : No warppoints\nFormat settings, Matrix : Default (MPEG)\nCodec ID : XVID\nCodec ID/Hint : XviD\nDuration : 2h 13mn\nBit rate : 2 084 Kbps\nWidth : 720 pixels\nHeight : 320 pixels\nDisplay aspect ratio : 2.25:1\nFrame rate : 23.976 fps\nColor space : YUV\nChroma subsampling : 4:2:0\nBit depth : 8 bits\nScan type : Progressive\nCompression mode : Lossy\nBits/(Pixel*Frame) : 0.377\nStream size : 1.94 GiB (87%)\nWriting library : XviD 64\nDefault : Yes\nForced : No\n\nAudio\nID : 2\nFormat : AC-3\nFormat/Info : Audio Coding 3\nMode extension : CM (complete main)\nFormat settings, Endianness : Big\nMuxing mode : Header stripping\nCodec ID : A_AC3\nDuration : 2h 13mn\nBit rate mode : Constant\nBit rate : 256 Kbps\nChannel(s) : 2 channels\nChannel positions : Front: L R\nSampling rate : 48.0 KHz\nBit depth : 16 bits\nCompression mode : Lossy\nDelay relative to video : 4ms\nStream size : 245 MiB (11%)\nLanguage : English\nDefault : Yes\nForced : No\n\nvideo screenshot proof,please seed this release\n &lt;a href=&quot;\nhttp://img515.imageshack.us/img51/2648/vlcsnap2012052112h09m52.png&quot; rel=&quot;nofollow&quot; target=&quot;_NEW&quot;&gt;\nhttp://img515.imageshack.us/img51/2648/vlcsnap2012052112h09m52.png&lt;/a&gt; &lt;a href=&quot;\nhttp://img140.imageshack.us/img14/4241/vlcsnap2012052112h09m01.png&quot; rel=&quot;nofollow&quot; target=&quot;_NEW&quot;&gt;\nhttp://img140.imageshack.us/img14/4241/vlcsnap2012052112h09m01.png&lt;/a&gt; &lt;a href=&quot;\nhttp://img69.imageshack.us/img69/9713/vlcsnap2012052112h06m46.png&quot; rel=&quot;nofollow&quot; target=&quot;_NEW&quot;&gt;\nhttp://img69.imageshack.us/img69/9713/vlcsnap2012052112h06m46.png&lt;/a&gt; &lt;a href=&quot;\nhttp://img52.imageshack.us/img52/6420/vlcsnap2012052112h07m13.png&quot; rel=&quot;nofollow&quot; target=&quot;_NEW&quot;&gt;\nhttp://img52.imageshack.us/img52/6420/vlcsnap2012052112h07m13.png&lt;/a&gt; &lt;a href=&quot;\nhttp://img24.imageshack.us/img24/333/vlcsnap2012052112h07m00.png&quot; rel=&quot;nofollow&quot; target=&quot;_NEW&quot;&gt;\nhttp://img24.imageshack.us/img24/333/vlcsnap2012052112h07m00.png&lt;/a&gt;\n\nEnjoy","torrent":{"xt":"urn:btih:c782e2289bf7e6d13b76726d80d176126e4c919b","amp;dn":"The.Avengers.2012TS.XviD.full+line+audio.Mripper","amp;tr":["udp%3A%2F%2Ftracker.openbittorrent.com%3A80","udp%3A%2F%2Fopen.demonii.com%3A1337","udp%3A%2F%2Ftracker.coppersurfer.tk%3A6969","udp%3A%2F%2Fexodus.desync.com%3A6969"],"infoHash":"c782e2289bf7e6d13b76726d80d176126e4c919b","infoHashBuffer":{"type":"Buffer","data":[199,130,226,40,155,247,230,209,59,118,114,109,128,209,118,18,110,76,145,155]},"announce":[],"urlList":[]}}